<svg width="178" height="126" viewBox="0 0 178 126" fill="none" xmlns="http://www.w3.org/2000/svg">
<path fill-rule="evenodd" clip-rule="evenodd" d="M26.8405 0.798336C24.9126 1.29325 22.2837 2.16088 20.9984 2.72649C13.8477 5.87203 7.10035 12.3204 3.6998 19.2591C0.635268 25.5108 -0.0307136 28.4752 0.00106628 35.7093C0.0258388 41.3092 0.149231 42.152 1.54431 46.2443C3.72035 52.6291 6.43763 56.6647 13.3948 63.8435L19.2359 69.8708C19.3542 69.9929 19.4024 70.1668 19.3637 70.3324L15.9009 85.1684C13.9622 93.4743 12.4232 100.316 12.4807 100.372C12.5386 100.427 14.9353 100.65 17.8068 100.867L22.3501 101.21C22.6862 101.235 22.9014 101.579 22.7775 101.892L18.3966 112.967C15.8494 119.405 13.8183 124.838 13.8828 125.042C13.9473 125.245 21.4078 116.343 30.4616 105.259L46.2559 85.9234C46.5227 85.5968 46.2903 85.1071 45.8687 85.1071H36.7218C36.2773 85.1071 36.0538 84.5704 36.3669 84.2549L49.575 70.9432C64.8093 55.5896 65.8306 54.0358 68.6567 46.588C71.1832 38.9929 71.1659 31.4404 68.6048 23.7695C65.0378 13.0841 56.4738 4.82227 45.3014 1.28857C40.5773 -0.205538 31.6712 -0.441988 26.8405 0.798336ZM54.2009 35.3972C54.2009 45.869 45.7697 54.3581 35.3693 54.3581C24.9689 54.3581 16.5377 45.869 16.5377 35.3972C16.5377 24.9254 24.9689 16.4363 35.3693 16.4363C45.7697 16.4363 54.2009 24.9254 54.2009 35.3972Z" fill="url(#paint0_linear_719_548)"/>
<path fill-rule="evenodd" clip-rule="evenodd" d="M76.1018 92.0508C74.285 94.0071 71.4658 95.1315 67.284 95.1315H67.2997C63.9293 95.1856 60.6048 94.3802 57.649 92.7973C57.4191 92.6742 57.3293 92.3924 57.4393 92.156L59.3642 88.0188C59.4933 87.7413 59.8389 87.6446 60.1014 87.8019C62.0592 88.9752 64.3105 89.5997 66.6106 89.6017C70.1345 89.6017 71.873 87.6609 71.873 84.1181V84.1181C71.873 83.8606 71.5219 83.7485 71.3556 83.945C70.7494 84.6614 70.0086 85.2601 69.171 85.707C68.0771 86.2906 66.8526 86.5969 65.6082 86.598C60.6746 86.598 56.7121 82.6394 56.7121 76.2469V76.1699C56.7121 69.7313 60.6902 65.7726 65.3889 65.7726C66.6068 65.7604 67.8102 66.0334 68.8995 66.569C69.534 66.881 70.1191 67.2768 70.6396 67.7438C70.9976 68.065 71.6538 67.8287 71.6538 67.3476V66.7039C71.6538 66.4278 71.8776 66.2039 72.1538 66.2039H78.2018C78.4779 66.2039 78.7018 66.4278 78.7018 66.7039V83.1477C78.7018 87.2296 77.9186 90.0946 76.1018 92.0508ZM66.0364 80.1464C66.5606 80.3597 67.1241 80.4638 67.6912 80.4521H67.6286C68.1894 80.4448 68.7429 80.3255 69.2554 80.1013C69.7679 79.877 70.2286 79.5526 70.6095 79.1477C70.9904 78.7428 71.2836 78.2659 71.4712 77.746C71.6588 77.2261 71.7369 76.6742 71.7008 76.1237V76.0467C71.7394 75.4972 71.6628 74.9457 71.4757 74.4265C71.2886 73.9074 70.9951 73.4315 70.6132 73.0286C70.2314 72.6256 69.7694 72.3041 69.256 72.084C68.7426 71.8639 68.1887 71.7499 67.6286 71.7491C67.0638 71.7501 66.5051 71.8648 65.9871 72.0863C65.4692 72.3078 65.0028 72.6313 64.6168 73.0368C64.2309 73.4424 63.9335 73.9214 63.743 74.4444C63.5526 74.9674 63.4731 75.5232 63.5094 76.0775V76.1699C63.4747 76.7268 63.5577 77.2847 63.7533 77.8085C63.9488 78.3322 64.2527 78.8104 64.6457 79.2128C65.0386 79.6152 65.5122 79.933 66.0364 80.1464Z" fill="url(#paint1_linear_719_548)"/>
<path fill-rule="evenodd" clip-rule="evenodd" d="M103.871 77.3252C103.871 83.6586 99.2223 88.9642 92.7895 88.9855C92.7683 88.9856 92.7507 88.9683 92.7507 88.947V88.947C92.7507 88.9258 92.7332 88.9085 92.7119 88.9085C86.3728 88.8872 81.6932 83.6585 81.6932 77.3252C81.6932 70.9636 86.4545 65.6494 92.8134 65.6494C99.1722 65.6494 103.871 70.8865 103.871 77.2327V77.3252ZM89.6125 80.6796C90.3827 81.6044 91.4868 82.1991 92.6923 82.3402C92.7292 82.3445 92.7661 82.3316 92.7927 82.3055V82.3055C92.816 82.2825 92.8479 82.2697 92.8806 82.2694C95.4807 82.24 97.0265 79.9878 97.0265 77.3252C97.0847 76.7191 97.0205 76.1076 96.8376 75.526C96.6548 74.9443 96.3568 74.4039 95.961 73.9359C95.5651 73.4678 95.0791 73.0813 94.5309 72.7986C93.9826 72.5158 93.383 72.3424 92.7664 72.2883C90.1351 72.2883 88.5689 74.5525 88.5689 77.2327V77.3252C88.455 78.5347 88.8298 79.7398 89.6125 80.6796Z" fill="url(#paint2_linear_719_548)"/>
<path fill-rule="evenodd" clip-rule="evenodd" d="M150.121 92.0508C148.305 94.0071 145.485 95.1315 141.304 95.1315H141.397C138.026 95.1856 134.7 94.3797 131.744 92.7957C131.515 92.6733 131.425 92.3935 131.533 92.1576L133.448 87.9628C133.576 87.683 133.923 87.5845 134.187 87.7424C136.144 88.9144 138.394 89.5381 140.693 89.5401C144.217 89.5401 145.955 87.5993 145.955 84.0565V84.0565C145.955 83.799 145.604 83.6868 145.438 83.8834C144.832 84.5998 144.091 85.1985 143.253 85.6454C142.159 86.229 140.935 86.5353 139.69 86.5364C134.757 86.5364 130.794 82.5777 130.794 76.1853V76.1083C130.794 69.6697 134.772 65.711 139.471 65.711C140.689 65.6975 141.893 65.9699 142.983 66.5057C143.616 66.8174 144.201 67.2129 144.721 67.6795C145.079 68.0011 145.736 67.7647 145.736 67.2833V66.6423C145.736 66.3661 145.96 66.1423 146.236 66.1423H152.284C152.56 66.1423 152.784 66.3661 152.784 66.6423V83.0861C152.784 87.168 151.938 90.0946 150.121 92.0508ZM140.185 80.1277C140.702 80.3448 141.258 80.4552 141.82 80.4521C142.381 80.4448 142.935 80.3255 143.447 80.1013C143.96 79.877 144.42 79.5526 144.801 79.1477C145.182 78.7428 145.475 78.2659 145.663 77.746C145.851 77.2261 145.929 76.6742 145.893 76.1237V76.0467C145.931 75.4972 145.855 74.9457 145.667 74.4265C145.48 73.9074 145.187 73.4315 144.805 73.0286C144.423 72.6256 143.961 72.3041 143.448 72.084C142.934 71.8639 142.38 71.7499 141.82 71.7491C141.256 71.7501 140.697 71.8648 140.179 72.0863C139.661 72.3078 139.195 72.6313 138.809 73.0368C138.423 73.4424 138.125 73.9214 137.935 74.4444C137.744 74.9674 137.665 75.5232 137.701 76.0775V76.1699C137.667 76.7216 137.748 77.2742 137.94 77.7937C138.132 78.3132 138.43 78.7884 138.816 79.1899C139.202 79.5914 139.668 79.9106 140.185 80.1277Z" fill="url(#paint3_linear_719_548)"/>
<path fill-rule="evenodd" clip-rule="evenodd" d="M178 77.3252C178 83.6586 173.351 88.9642 166.919 88.9855C166.897 88.9856 166.88 88.9683 166.88 88.947V88.947C166.88 88.9258 166.862 88.9085 166.841 88.9085C160.502 88.8872 155.822 83.6585 155.822 77.3252C155.822 70.9636 160.584 65.6494 166.943 65.6494C173.301 65.6494 178 70.8865 178 77.2327V77.3252ZM165.119 81.8378C165.655 82.1135 166.239 82.2849 166.84 82.343C166.861 82.3451 166.88 82.3281 166.88 82.3065V82.3065C166.88 82.2862 166.897 82.2697 166.917 82.2695C169.526 82.2483 171.077 79.9927 171.077 77.3252C171.135 76.7191 171.071 76.1076 170.888 75.526C170.706 74.9443 170.408 74.4039 170.012 73.9359C169.616 73.4678 169.13 73.0813 168.582 72.7986C168.033 72.5158 167.434 72.3424 166.817 72.2883C164.186 72.2883 162.62 74.5525 162.62 77.2327V77.3252C162.564 77.9301 162.63 78.5399 162.813 79.1198C162.997 79.6996 163.296 80.2382 163.691 80.7045C164.087 81.1709 164.572 81.556 165.119 81.8378Z" fill="url(#paint4_linear_719_548)"/>
<path d="M126.863 66.9504C126.863 66.6742 126.639 66.4504 126.363 66.4504H107.848C107.572 66.4504 107.348 66.6742 107.348 66.9504V71.28C107.348 71.5561 107.572 71.78 107.848 71.78H126.363C126.639 71.78 126.863 71.5561 126.863 71.28V66.9504Z" fill="url(#paint5_linear_719_548)"/>
<path d="M107.348 75.3606C107.348 75.0845 107.572 74.8606 107.848 74.8606H126.363C126.639 74.8606 126.863 75.0845 126.863 75.3606V79.6902C126.863 79.9663 126.639 80.1902 126.363 80.1902H107.848C107.572 80.1902 107.348 79.9663 107.348 79.6902V75.3606Z" fill="url(#paint6_linear_719_548)"/>
<path d="M107.348 83.9249C107.348 83.6488 107.572 83.4249 107.848 83.4249H126.363C126.639 83.4249 126.863 83.6488 126.863 83.9249V88.2391C126.863 88.5153 126.639 88.7391 126.363 88.7391H107.848C107.572 88.7391 107.348 88.5153 107.348 88.2391V83.9249Z" fill="url(#paint7_linear_719_548)"/>
<defs>
<linearGradient id="paint0_linear_719_548" x1="-14.5902" y1="-1.87964e-06" x2="131.809" y2="201.932" gradientUnits="userSpaceOnUse">
<stop offset="0.120448" stop-color="#CF9B43"/>
<stop offset="0.437577" stop-color="#ECC680"/>
<stop offset="0.841148" stop-color="#F2DCB4"/>
</linearGradient>
<linearGradient id="paint1_linear_719_548" x1="-14.5902" y1="-1.87964e-06" x2="131.809" y2="201.932" gradientUnits="userSpaceOnUse">
<stop offset="0.120448" stop-color="#CF9B43"/>
<stop offset="0.437577" stop-color="#ECC680"/>
<stop offset="0.841148" stop-color="#F2DCB4"/>
</linearGradient>
<linearGradient id="paint2_linear_719_548" x1="-14.5902" y1="-1.87964e-06" x2="131.809" y2="201.932" gradientUnits="userSpaceOnUse">
<stop offset="0.120448" stop-color="#CF9B43"/>
<stop offset="0.437577" stop-color="#ECC680"/>
<stop offset="0.841148" stop-color="#F2DCB4"/>
</linearGradient>
<linearGradient id="paint3_linear_719_548" x1="-14.5902" y1="-1.87964e-06" x2="131.809" y2="201.932" gradientUnits="userSpaceOnUse">
<stop offset="0.120448" stop-color="#CF9B43"/>
<stop offset="0.437577" stop-color="#ECC680"/>
<stop offset="0.841148" stop-color="#F2DCB4"/>
</linearGradient>
<linearGradient id="paint4_linear_719_548" x1="-14.5902" y1="-1.87964e-06" x2="131.809" y2="201.932" gradientUnits="userSpaceOnUse">
<stop offset="0.120448" stop-color="#CF9B43"/>
<stop offset="0.437577" stop-color="#ECC680"/>
<stop offset="0.841148" stop-color="#F2DCB4"/>
</linearGradient>
<linearGradient id="paint5_linear_719_548" x1="-14.5902" y1="-1.87964e-06" x2="131.809" y2="201.932" gradientUnits="userSpaceOnUse">
<stop offset="0.120448" stop-color="#CF9B43"/>
<stop offset="0.437577" stop-color="#ECC680"/>
<stop offset="0.841148" stop-color="#F2DCB4"/>
</linearGradient>
<linearGradient id="paint6_linear_719_548" x1="-14.5902" y1="-1.87964e-06" x2="131.809" y2="201.932" gradientUnits="userSpaceOnUse">
<stop offset="0.120448" stop-color="#CF9B43"/>
<stop offset="0.437577" stop-color="#ECC680"/>
<stop offset="0.841148" stop-color="#F2DCB4"/>
</linearGradient>
<linearGradient id="paint7_linear_719_548" x1="-14.5902" y1="-1.87964e-06" x2="131.809" y2="201.932" gradientUnits="userSpaceOnUse">
<stop offset="0.120448" stop-color="#CF9B43"/>
<stop offset="0.437577" stop-color="#ECC680"/>
<stop offset="0.841148" stop-color="#F2DCB4"/>
</linearGradient>
</defs>
</svg>
